<svg xmlns="http://www.w3.org/2000/svg" xmlns:xlink="http://www.w3.org/1999/xlink" viewBox="0 0 231 412.25"><defs><linearGradient id="linear-gradient" x1="275.51" y1="45.49" x2="-115.57" y2="436.57" gradientUnits="userSpaceOnUse"><stop offset="0" stop-color="#5fc2a8"/><stop offset="0.15" stop-color="#64b6a7"/><stop offset="0.42" stop-color="#7397a5"/><stop offset="0.77" stop-color="#8966a2"/><stop offset="0.89" stop-color="#9253a1"/></linearGradient><linearGradient id="linear-gradient-2" x1="330.31" y1="120.01" x2="-70.35" y2="520.67" gradientUnits="userSpaceOnUse"><stop offset="0" stop-color="#00b8b8"/><stop offset="0.01" stop-color="#01b7b8"/><stop offset="0.69" stop-color="#6970a7"/><stop offset="1" stop-color="#9253a1"/></linearGradient><linearGradient id="linear-gradient-3" x1="240.22" y1="167.81" x2="-270.38" y2="678.4" xlink:href="#linear-gradient-2"/><linearGradient id="linear-gradient-4" x1="219.93" y1="228.67" x2="-290.63" y2="739.23" xlink:href="#linear-gradient-2"/><linearGradient id="linear-gradient-5" x1="196.86" y1="112.11" x2="104.91" y2="204.06" gradientUnits="userSpaceOnUse"><stop offset="0" stop-color="#00b8b8"/><stop offset="0.31" stop-color="#48c8b7"/><stop offset="0.79" stop-color="#b0e0b5"/><stop offset="1" stop-color="#d9e9b4"/></linearGradient><radialGradient id="radial-gradient" cx="229.84" cy="145.34" r="144.14" gradientUnits="userSpaceOnUse"><stop offset="0" stop-color="#d9e9b4"/><stop offset="0.14" stop-color="#d9e9b4" stop-opacity="0.77"/><stop offset="0.31" stop-color="#d9e9b4" stop-opacity="0.54"/><stop offset="0.47" stop-color="#d9e9b4" stop-opacity="0.35"/><stop offset="0.62" stop-color="#d9e9b4" stop-opacity="0.2"/><stop offset="0.76" stop-color="#d9e9b4" stop-opacity="0.09"/><stop offset="0.89" stop-color="#d9e9b4" stop-opacity="0.02"/><stop offset="1" stop-color="#d9e9b4" stop-opacity="0"/></radialGradient><radialGradient id="radial-gradient-2" cx="0" cy="236.34" r="175.91" gradientUnits="userSpaceOnUse"><stop offset="0" stop-color="#8dd5e3"/><stop offset="0.13" stop-color="#8bd5e5" stop-opacity="0.79"/><stop offset="0.29" stop-color="#89d4e7" stop-opacity="0.56"/><stop offset="0.46" stop-color="#87d4e9" stop-opacity="0.36"/><stop offset="0.61" stop-color="#86d3eb" stop-opacity="0.2"/><stop offset="0.76" stop-color="#85d3ec" stop-opacity="0.09"/><stop offset="0.89" stop-color="#84d3ed" stop-opacity="0.02"/><stop offset="1" stop-color="#84d3ed" stop-opacity="0"/></radialGradient><radialGradient id="radial-gradient-3" cx="192.45" cy="332.24" r="213.36" xlink:href="#radial-gradient-2"/><radialGradient id="radial-gradient-4" cx="186.23" cy="417.32" r="220.03" xlink:href="#radial-gradient"/></defs><g style="isolation:isolate"><g id="Layer_2" data-name="Layer 2"><g id="Layer_1-2" data-name="Layer 1"><rect width="231" height="411" style="fill:url(#linear-gradient)"/><path d="M231,412V124.77C125.7,128.16,36.42,194.91,0,288.18V412Z" style="opacity:0.5;fill:url(#linear-gradient-2)"/><path d="M78.66,181.14a233.17,233.17,0,0,0-63-8.63c-5.25,0-10.46.2-15.63.54V412H231V315.81A234,234,0,0,0,78.66,181.14Z" style="mix-blend-mode:multiply;opacity:0.13;fill:url(#linear-gradient-3)"/><path d="M78.66,262.28a233.56,233.56,0,0,0-63-8.62c-5.25,0-10.46.19-15.63.54V412H231V397A234,234,0,0,0,78.66,262.28Z" style="mix-blend-mode:multiply;opacity:0.13;fill:url(#linear-gradient-4)"/><path d="M0,287.78V293c36.42-93.22,125.7-160,231-163.33v-5.2C125.7,127.83,36.42,194.56,0,287.78Z" style="mix-blend-mode:screen;opacity:0.12;fill:url(#linear-gradient-5)"/><path d="M85.7,145.34A144.15,144.15,0,0,0,231,289.48h0V1.21h0A144.15,144.15,0,0,0,85.7,145.34Z" style="opacity:0.93;fill:url(#radial-gradient)"/><path d="M175.91,236.34A175.92,175.92,0,0,0,0,60.42V412.25A175.91,175.91,0,0,0,175.91,236.34Z" style="opacity:0.7000000000000001;fill:url(#radial-gradient-2)"/><path d="M231,276.33A99,99,0,0,0,126.15,412H231Z" style="opacity:0.25;fill:url(#radial-gradient-3)"/><path d="M231,211.46A224.71,224.71,0,0,0,0,302.06V412H231Z" style="opacity:0.93;fill:url(#radial-gradient-4)"/></g></g></g></svg>