<svg xmlns="http://www.w3.org/2000/svg" xmlns:xlink="http://www.w3.org/1999/xlink" viewBox="0 0 506.25 900"><defs><filter id="luminosity-noclip" x="-75.05" y="-8681.21" width="584.79" height="32766" filterUnits="userSpaceOnUse" color-interpolation-filters="sRGB"><feFlood flood-color="#fff" result="bg"/><feBlend in="SourceGraphic" in2="bg"/></filter><mask id="mask" x="-75.05" y="-8681.21" width="584.79" height="32766" maskUnits="userSpaceOnUse"><g style="filter:url(#luminosity-noclip)"/></mask><linearGradient id="linear-gradient" x1="58.15" y1="-1583.1" x2="671.74" y2="-1583.1" gradientTransform="matrix(0.95, -0.04, 0.03, 0.57, -96.92, 1579.85)" gradientUnits="userSpaceOnUse"><stop offset="0" stop-color="#fff"/><stop offset="1" stop-color="#0d0d0d"/></linearGradient><filter id="luminosity-noclip-2" x="-101.35" y="-8681.21" width="748.06" height="32766" filterUnits="userSpaceOnUse" color-interpolation-filters="sRGB"><feFlood flood-color="#fff" result="bg"/><feBlend in="SourceGraphic" in2="bg"/></filter><mask id="mask-2" x="-101.35" y="-8681.21" width="748.06" height="32766" maskUnits="userSpaceOnUse"><g style="filter:url(#luminosity-noclip-2)"/></mask><linearGradient id="linear-gradient-2" x1="1357.67" y1="-799.55" x2="1971.27" y2="-799.55" gradientTransform="matrix(0.85, -0.42, 0.25, 0.51, -938.41, 1850.76)" gradientUnits="userSpaceOnUse"><stop offset="0" stop-color="#0d0d0d"/><stop offset="0.36" stop-color="#656565"/><stop offset="1" stop-color="#fff"/></linearGradient><filter id="luminosity-noclip-3" x="-189.82" y="-8681.21" width="977.41" height="32766" filterUnits="userSpaceOnUse" color-interpolation-filters="sRGB"><feFlood flood-color="#fff" result="bg"/><feBlend in="SourceGraphic" in2="bg"/></filter><mask id="mask-3" x="-189.82" y="-8681.21" width="977.41" height="32766" maskUnits="userSpaceOnUse"><g style="filter:url(#luminosity-noclip-3)"/></mask><linearGradient id="linear-gradient-3" x1="2627.27" y1="2312.63" x2="3197.48" y2="2312.63" gradientTransform="matrix(0.45, -0.89, 0.7, 0.35, -2611.85, 2526.15)" xlink:href="#linear-gradient"/><clipPath id="clip-path"><rect width="506.25" height="900" style="fill:none"/></clipPath><filter id="luminosity-noclip-4" x="-75.05" y="330.37" width="584.79" height="665.8" filterUnits="userSpaceOnUse" color-interpolation-filters="sRGB"><feFlood flood-color="#fff" result="bg"/><feBlend in="SourceGraphic" in2="bg"/></filter><mask id="mask-4" x="-75.05" y="330.37" width="584.79" height="665.8" maskUnits="userSpaceOnUse"><g style="mask:url(#mask);filter:url(#luminosity-noclip-4)"><path d="M136.5,468.6c18.14,46.25,26.89,94.29,54,138.71C241.81,691.45,361,758,504.82,782.63c10.25,63.58,4.48,128.54-17.06,192-1.33,3.9-2.86,8-7.19,11.06-5.66,4-14.78,5.47-23.29,6.4-54,5.89-108.55.9-162.56-1.92A2031.53,2031.53,0,0,0,14.85,995c-14.14,1.22-29.41,2.48-41.63-1.52-15-4.9-20.43-16-24.11-26.11C-90,859.72-74,746.42-55.94,635.19c11.86-73,24.42-146.66,14.24-219.38-2.91-20.76-36.37-71.4,7.23-83.26,42-11.41,87.53,24.92,107,41.65C104.87,402.1,123.46,435.36,136.5,468.6Z" style="mix-blend-mode:multiply;fill:url(#linear-gradient)"/></g></mask><linearGradient id="linear-gradient-4" x1="58.15" y1="-1583.1" x2="671.74" y2="-1583.1" gradientTransform="matrix(0.95, -0.04, 0.03, 0.57, -96.92, 1579.85)" gradientUnits="userSpaceOnUse"><stop offset="0" stop-color="#fff024"/><stop offset="1" stop-color="#00879c"/></linearGradient><filter id="luminosity-noclip-5" x="-101.35" y="530.63" width="748.06" height="618.37" filterUnits="userSpaceOnUse" color-interpolation-filters="sRGB"><feFlood flood-color="#fff" result="bg"/><feBlend in="SourceGraphic" in2="bg"/></filter><mask id="mask-5" x="-101.35" y="530.63" width="748.06" height="618.37" maskUnits="userSpaceOnUse"><g style="mask:url(#mask-2);filter:url(#luminosity-noclip-5)"><path d="M122,602.49c35.15,35.12,62.4,75.64,105,105.49,80.72,56.55,216.6,69.74,358.24,34.79,34.85,54.16,55.57,116,61.25,182.78.35,4.1.58,8.45-2.16,13-3.57,6-11.35,10.93-18.77,15.19-47.14,27-99.11,44.29-149.73,63.33a2029.78,2029.78,0,0,0-254.54,116.46c-12.47,6.78-25.95,14-38.76,15.28-15.7,1.51-25.12-6.48-32.54-14.28-78.92-83-109.66-193.18-137.63-302.34C-6,760.57-24,688-62.42,625.47c-11-17.85-61.91-50.85-26.71-79.18C-55.25,519,1.05,534.07,25.56,541.63,66.4,554.22,96.75,577.26,122,602.49Z" style="mix-blend-mode:multiply;fill:url(#linear-gradient-2)"/></g></mask><linearGradient id="linear-gradient-5" x1="1357.67" y1="-799.55" x2="1971.27" y2="-799.55" gradientTransform="matrix(0.85, -0.42, 0.25, 0.51, -938.41, 1850.76)" gradientUnits="userSpaceOnUse"><stop offset="0" stop-color="#00879c"/><stop offset="0.36" stop-color="#5dad70"/><stop offset="1" stop-color="#fff024"/></linearGradient><filter id="luminosity-noclip-6" x="-189.82" y="544.51" width="977.41" height="584.91" filterUnits="userSpaceOnUse" color-interpolation-filters="sRGB"><feFlood flood-color="#fff" result="bg"/><feBlend in="SourceGraphic" in2="bg"/></filter><mask id="mask-6" x="-189.82" y="544.51" width="977.41" height="584.91" maskUnits="userSpaceOnUse"><g style="mask:url(#mask-3);filter:url(#luminosity-noclip-6)"><path d="M45.1,667.25c60.23,12.52,117.88,34.08,180.41,37.91C344,712.42,475.83,651.48,573.15,544.51A639.84,639.84,0,0,1,778.27,674.79c3.69,3.48,7.48,7.23,8.8,12.76,1.73,7.23-1.1,15.83-4.21,23.6-19.69,49.34-51.75,92.55-81.14,136.62A1533.29,1533.29,0,0,0,571,1087.88c-5.52,12.72-11.54,26.42-21.92,34.37-12.74,9.75-27.71,7.67-40.75,4.68-138.61-31.79-256.79-113.66-371.63-196.08C61.37,876.76-14.4,821.67-100.18,786.44c-24.48-10.06-97-12.24-89-56.35,7.7-42.45,70.23-59.16,98.28-65.53C-44.18,653.94,1.82,658.25,45.1,667.25Z" style="mix-blend-mode:multiply;fill:url(#linear-gradient-3)"/></g></mask><linearGradient id="linear-gradient-6" x1="2627.27" y1="2312.63" x2="3197.48" y2="2312.63" gradientTransform="matrix(0.45, -0.89, 0.7, 0.35, -2611.85, 2526.15)" xlink:href="#linear-gradient-4"/></defs><g id="Layer_2" data-name="Layer 2"><g id="object"><g style="clip-path:url(#clip-path)"><rect width="506.25" height="900" style="fill:#fff"/><g style="mask:url(#mask-4)"><path d="M136.5,468.6c18.14,46.25,26.89,94.29,54,138.71C241.81,691.45,361,758,504.82,782.63c10.25,63.58,4.48,128.54-17.06,192-1.33,3.9-2.86,8-7.19,11.06-5.66,4-14.78,5.47-23.29,6.4-54,5.89-108.55.9-162.56-1.92A2031.53,2031.53,0,0,0,14.85,995c-14.14,1.22-29.41,2.48-41.63-1.52-15-4.9-20.43-16-24.11-26.11C-90,859.72-74,746.42-55.94,635.19c11.86-73,24.42-146.66,14.24-219.38-2.91-20.76-36.37-71.4,7.23-83.26,42-11.41,87.53,24.92,107,41.65C104.87,402.1,123.46,435.36,136.5,468.6Z" style="opacity:0.47000000000000003;fill:url(#linear-gradient-4)"/></g><g style="mask:url(#mask-5)"><path d="M122,602.49c35.15,35.12,62.4,75.64,105,105.49,80.72,56.55,216.6,69.74,358.24,34.79,34.85,54.16,55.57,116,61.25,182.78.35,4.1.58,8.45-2.16,13-3.57,6-11.35,10.93-18.77,15.19-47.14,27-99.11,44.29-149.73,63.33a2029.78,2029.78,0,0,0-254.54,116.46c-12.47,6.78-25.95,14-38.76,15.28-15.7,1.51-25.12-6.48-32.54-14.28-78.92-83-109.66-193.18-137.63-302.34C-6,760.57-24,688-62.42,625.47c-11-17.85-61.91-50.85-26.71-79.18C-55.25,519,1.05,534.07,25.56,541.63,66.4,554.22,96.75,577.26,122,602.49Z" style="opacity:0.47000000000000003;fill:url(#linear-gradient-5)"/></g><g style="mask:url(#mask-6)"><path d="M45.1,667.25c60.23,12.52,117.88,34.08,180.41,37.91C344,712.42,475.83,651.48,573.15,544.51A639.84,639.84,0,0,1,778.27,674.79c3.69,3.48,7.48,7.23,8.8,12.76,1.73,7.23-1.1,15.83-4.21,23.6-19.69,49.34-51.75,92.55-81.14,136.62A1533.29,1533.29,0,0,0,571,1087.88c-5.52,12.72-11.54,26.42-21.92,34.37-12.74,9.75-27.71,7.67-40.75,4.68-138.61-31.79-256.79-113.66-371.63-196.08C61.37,876.76-14.4,821.67-100.18,786.44c-24.48-10.06-97-12.24-89-56.35,7.7-42.45,70.23-59.16,98.28-65.53C-44.18,653.94,1.82,658.25,45.1,667.25Z" style="opacity:0.47000000000000003;fill:url(#linear-gradient-6)"/></g></g></g></g></svg>